<?xml version="1.0" standalone="no"?>
<!DOCTYPE svg PUBLIC "-//W3C//DTD SVG 20010904//EN"
 "http://www.w3.org/TR/2001/REC-SVG-20010904/DTD/svg10.dtd">
<svg version="1.0" xmlns="http://www.w3.org/2000/svg"
 width="590.000000pt" height="701.000000pt" viewBox="0 0 590.000000 701.000000"
 preserveAspectRatio="xMidYMid meet">

<g transform="translate(0.000000,701.000000) scale(0.100000,-0.100000)"
fill="#000000" stroke="none">
<path d="M2505 6806 c-27 -7 -66 -23 -85 -35 -19 -12 -42 -24 -51 -27 -21 -7
-199 -189 -199 -203 0 -6 -3 -11 -8 -11 -6 0 -53 -68 -191 -278 -22 -35 -41
-65 -41 -67 0 -2 -13 -23 -29 -47 -80 -122 -121 -188 -121 -197 0 -6 -4 -11
-8 -11 -5 0 -14 -10 -21 -22 -6 -13 -20 -36 -31 -53 -11 -16 -23 -37 -27 -45
-4 -8 -20 -34 -35 -56 -15 -23 -28 -47 -28 -53 0 -6 -4 -11 -9 -11 -5 0 -14
-13 -21 -30 -7 -16 -16 -30 -21 -30 -5 0 -9 -5 -9 -10 0 -6 -12 -29 -27 -53
-35 -54 -49 -77 -63 -102 -6 -11 -16 -29 -23 -40 -51 -83 -63 -103 -75 -120
-6 -11 -16 -30 -22 -42 -11 -25 -30 -29 -63 -11 -31 16 -82 28 -162 37 -46 5
-93 19 -135 39 -36 18 -77 32 -92 32 -15 0 -57 7 -95 16 -101 25 -410 24 -473
0 -127 -50 -195 -107 -240 -202 -34 -73 -41 -165 -16 -231 8 -21 24 -69 36
-108 22 -72 120 -277 145 -306 8 -8 15 -19 15 -23 0 -11 94 -133 163 -211 34
-38 95 -99 135 -135 41 -36 79 -70 85 -75 25 -22 137 -105 143 -105 5 0 64
-40 74 -50 7 -7 41 -28 65 -40 11 -6 34 -19 50 -30 17 -11 45 -26 63 -34 l33
-15 -31 -54 c-27 -48 -30 -63 -30 -135 0 -102 38 -207 121 -330 16 -24 29 -47
29 -51 0 -5 6 -11 13 -14 9 -3 20 -46 31 -124 9 -65 26 -149 37 -188 11 -38
34 -119 50 -180 17 -60 41 -127 54 -150 12 -22 26 -53 29 -70 4 -16 30 -74 57
-129 49 -98 50 -99 47 -184 l-3 -86 -60 -14 c-187 -46 -285 -152 -326 -357
-22 -111 -24 -208 -5 -300 8 -38 22 -108 31 -155 63 -327 99 -494 169 -775 64
-259 82 -315 103 -315 7 0 13 3 13 8 0 4 34 34 75 67 41 33 75 63 75 68 0 4 4
7 10 7 5 0 22 12 38 27 15 16 58 53 95 83 37 30 67 58 67 63 0 4 5 7 11 7 5 0
22 13 37 28 15 15 56 53 92 83 36 29 74 62 84 71 28 25 114 52 166 51 50 -1
150 -30 150 -44 0 -5 5 -9 11 -9 20 0 73 -70 86 -113 19 -63 16 -118 -11 -173
-13 -27 -29 -65 -37 -84 -15 -38 -17 -169 -5 -272 l8 -68 45 0 45 0 -6 58 c-3
31 -9 110 -12 174 -5 97 -3 125 12 170 13 39 18 85 19 176 l0 123 -75 69
c-160 148 -318 310 -385 395 -22 28 -42 52 -45 55 -13 12 -100 129 -100 135 0
3 -8 15 -18 26 -11 10 -25 32 -33 47 -8 15 -16 29 -19 32 -26 24 -200 365
-200 392 0 8 -4 18 -9 23 -5 6 -16 36 -26 67 -15 50 -16 69 -6 152 13 114 14
326 1 458 -5 53 -14 152 -19 221 -12 146 -16 157 -46 157 -32 0 -86 33 -111
67 -24 34 -54 106 -54 132 0 19 -66 123 -82 129 -4 2 -8 10 -8 18 0 8 -3 14
-7 14 -15 0 -96 150 -124 229 -30 86 -23 148 21 189 42 39 85 35 205 -17 11
-5 36 -16 56 -25 25 -11 41 -26 49 -48 7 -18 18 -46 25 -63 29 -74 91 -308
105 -400 4 -27 13 -68 19 -91 10 -39 14 -41 63 -53 29 -6 63 -14 74 -17 21 -6
22 -3 26 163 5 161 13 217 45 311 14 41 17 43 47 37 17 -4 49 -12 71 -20 39
-13 106 -31 230 -61 33 -9 83 -22 111 -30 28 -8 61 -14 74 -14 47 0 4 -19 -65
-30 -39 -6 -95 -16 -125 -23 l-55 -14 135 -42 c74 -23 150 -49 168 -57 18 -8
40 -14 50 -15 9 0 34 -8 56 -18 l38 -17 -78 -12 c-79 -13 -153 -33 -209 -57
-16 -7 -45 -19 -64 -26 -34 -13 -33 -13 75 -34 60 -12 129 -28 154 -34 116
-32 157 -44 188 -57 18 -8 39 -14 47 -14 8 0 29 -6 47 -14 118 -49 260 -62
335 -30 88 38 109 47 125 55 29 15 83 10 104 -9 27 -25 84 -145 84 -176 0 -8
6 -33 14 -53 7 -21 21 -65 30 -98 27 -98 48 -166 74 -240 34 -96 39 -157 15
-189 -10 -14 -23 -26 -30 -26 -6 0 -13 -3 -15 -7 -4 -11 -65 -53 -75 -53 -5 0
-20 -11 -35 -25 -19 -17 -28 -38 -33 -72 -3 -27 -12 -71 -19 -100 -11 -44 -11
-55 3 -77 26 -44 68 -59 147 -54 38 3 77 8 87 13 26 11 22 -38 -5 -70 -58 -66
-194 -58 -453 28 -78 26 -105 30 -205 31 -99 0 -120 -2 -153 -21 -42 -23 -37
-28 39 -38 80 -10 300 -70 318 -86 6 -5 16 -9 24 -9 19 0 197 -87 255 -124 26
-17 47 -36 47 -42 0 -36 -173 -25 -266 16 l-61 28 -16 -47 c-19 -52 -22 -81
-7 -81 5 0 21 -18 36 -39 14 -22 35 -42 48 -45 25 -6 75 -51 94 -83 20 -36 14
-85 -15 -128 -51 -77 -56 -79 -137 -66 -64 11 -115 23 -231 53 -80 21 -105 30
-110 39 -4 5 -13 9 -21 9 -28 0 -209 93 -308 158 -115 76 -262 213 -352 328
-35 45 -64 84 -64 87 0 3 -16 29 -36 58 -21 31 -33 43 -29 29 9 -31 55 -114
95 -174 17 -24 30 -47 30 -50 0 -4 5 -12 10 -19 6 -7 42 -55 81 -107 38 -52
74 -96 79 -98 6 -2 10 -8 10 -12 0 -5 15 -24 33 -43 17 -18 57 -60 88 -93 82
-86 218 -214 229 -214 4 0 10 -4 12 -10 4 -12 263 -205 303 -225 17 -9 44 -25
60 -35 17 -11 41 -25 55 -30 13 -6 27 -14 30 -18 13 -18 148 -75 176 -76 31 0
124 42 124 56 0 5 6 8 14 8 8 0 16 3 18 8 2 6 60 53 115 95 9 6 15 2 22 -14 5
-13 17 -44 26 -69 42 -109 49 -127 65 -165 37 -84 113 -240 120 -245 3 -3 9
-12 13 -20 4 -8 29 -49 57 -90 27 -41 54 -85 60 -97 9 -21 16 -23 80 -23 39 0
70 4 70 10 0 12 -98 200 -145 278 -16 26 -78 116 -84 122 -40 35 -53 146 -26
205 23 47 56 62 103 46 46 -16 99 -42 177 -86 108 -62 253 -129 303 -139 23
-6 32 -4 32 6 0 15 -26 97 -45 143 -7 17 -16 45 -19 62 -4 18 -12 35 -17 38
-5 4 -9 13 -9 21 0 25 -78 179 -117 231 -20 26 -74 86 -119 133 -45 47 -98
102 -118 123 -38 39 -43 56 -25 74 25 25 183 344 239 483 12 30 28 69 35 85 7
17 21 50 30 75 10 25 23 59 30 75 12 28 23 56 62 160 9 22 19 49 24 60 5 11
13 34 18 50 5 17 19 55 31 85 42 111 52 136 60 165 4 17 18 55 30 85 11 30 38
107 60 170 65 192 70 204 80 222 6 10 10 26 10 36 0 10 4 22 9 27 4 6 16 35
25 65 33 104 57 150 78 150 33 0 187 39 323 82 65 20 105 38 158 72 12 8 38
17 57 21 35 8 94 41 121 68 8 8 30 22 48 31 38 20 182 160 200 194 11 21 11
22 -16 16 -15 -4 -37 -11 -48 -17 -11 -6 -21 -9 -23 -8 -5 5 -183 -35 -217
-49 -11 -5 -49 -12 -85 -15 -36 -4 -99 -13 -140 -20 -441 -82 -1051 -94 -1475
-29 -124 19 -244 42 -312 60 -28 8 -61 14 -73 14 -13 0 -19 4 -14 11 4 8 32 9
87 4 188 -16 669 38 1062 121 39 8 80 14 91 14 12 0 36 6 53 13 28 12 -17 14
-321 15 -350 1 -520 11 -798 48 -391 51 -770 144 -770 188 0 9 25 27 58 42
116 53 128 59 157 80 17 11 38 24 48 27 19 7 41 53 31 68 -5 9 -63 38 -149 74
-145 62 -578 277 -595 295 -9 10 -87 60 -127 81 -13 7 -23 16 -23 21 0 4 -4 8
-9 8 -19 0 -151 121 -151 138 0 6 20 -2 44 -18 24 -17 46 -30 49 -30 3 0 34
-13 69 -28 35 -16 83 -37 108 -46 25 -10 59 -23 75 -30 17 -7 77 -27 135 -45
58 -19 120 -40 138 -47 18 -8 40 -14 50 -14 9 0 34 -6 57 -14 83 -28 121 -40
155 -47 32 -6 160 -38 300 -74 30 -8 89 -21 130 -30 41 -8 104 -22 140 -29 63
-14 144 -28 359 -62 64 -10 170 -17 280 -18 160 -1 179 1 206 19 17 11 35 27
42 35 18 22 16 93 -4 137 -26 60 -53 117 -63 133 -55 89 -115 205 -143 275
-42 104 -50 156 -44 280 17 383 122 676 299 842 149 140 167 169 153 246 -6
32 -64 107 -82 107 -5 0 -14 5 -21 12 -6 6 -38 20 -69 30 -73 23 -312 24 -490
3 -90 -10 -142 -12 -200 -5 -133 16 -147 21 -358 124 -82 40 -170 81 -195 91
-25 9 -58 22 -75 29 -139 58 -273 77 -370 52z m668 -3103 c-7 -2 -19 -2 -25 0
-7 3 -2 5 12 5 14 0 19 -2 13 -5z"/>
<path d="M4434 6188 c-43 -58 -94 -240 -94 -332 0 -119 43 -247 127 -378 24
-37 43 -70 43 -73 0 -3 5 -11 10 -18 6 -7 25 -34 42 -62 l32 -50 12 85 c27
188 6 401 -57 590 -54 160 -101 257 -115 238z"/>
<path d="M4737 4408 c-22 -160 -22 -283 2 -395 22 -106 31 -124 74 -156 64
-47 133 -60 300 -54 84 3 179 10 212 17 33 6 96 18 140 27 115 21 208 45 222
55 25 20 53 95 53 144 0 43 -5 56 -36 92 -97 114 -327 220 -724 336 -135 39
-157 45 -191 50 l-35 6 -17 -122z"/>
<path d="M3158 474 c-16 -8 -28 -19 -28 -24 0 -6 -6 -10 -12 -10 -20 -1 -271
-257 -266 -272 3 -7 18 -14 35 -16 19 -2 34 -11 41 -25 6 -12 24 -44 40 -72
l29 -50 171 -3 c167 -2 172 -2 172 18 0 11 7 47 17 80 18 67 20 67 87 6 22
-20 41 -34 44 -32 2 2 -8 24 -22 48 -13 23 -34 61 -46 83 -42 77 -92 145 -157
215 -36 38 -68 70 -72 70 -3 -1 -18 -8 -33 -16z"/>
</g>
</svg>
